<svg width="40" height="42" viewBox="0 0 40 42" fill="none" xmlns="http://www.w3.org/2000/svg">
    <path fill-rule="evenodd" clip-rule="evenodd" d="M38.9292 14.9995C38.9758 14.6731 39 14.3394 39 14C39 11.0743 37.2051 8.56786 34.6565 7.52166C34.664 7.50845 34.6716 7.49528 34.6793 7.48214L24.4349 1.58389C23.2275 0.59404 21.6831 0 20 0C18.2506 0 16.6511 0.64173 15.4241 1.70262L5.34923 7.51932C2.79754 8.56413 1 11.0722 1 14C1 14.3394 1.02415 14.6731 1.07082 14.9995C1.04725 14.9999 1.02365 15 1 15L0.967736 14.9999L0.953369 27.0002L1 27C1.02364 27 1.04725 27.0002 1.07082 27.0005C1.02415 27.327 1 27.6607 1 28C1 30.9257 2.79487 33.4322 5.34355 34.4784C5.33598 34.4916 5.32835 34.5048 5.32066 34.518L15.308 40.2683C15.3148 40.2499 15.3217 40.2316 15.3287 40.2134C16.5676 41.3243 18.2049 42 20 42C21.7951 42 23.4324 41.3243 24.6713 40.2134C24.6744 40.2213 24.6774 40.2292 24.6804 40.2371L34.6508 34.4806C37.2025 33.4358 39 30.9278 39 28C39 27.6607 38.9759 27.327 38.9292 27.0005C38.9528 27.0002 38.9764 27 39 27L39.0322 27.0001L39.0465 14.9998L39 15C38.9764 15 38.9527 14.9999 38.9292 14.9995Z" fill="#A08BD3"/>
    <path fill-rule="evenodd" clip-rule="evenodd" d="M20 13C19.4477 13 19 13.4477 19 14V20H13C12.4477 20 12 20.4477 12 21C12 21.5523 12.4477 22 13 22H19V28C19 28.5523 19.4477 29 20 29C20.5523 29 21 28.5523 21 28V22H27C27.5523 22 28 21.5523 28 21C28 20.4477 27.5523 20 27 20H21V14C21 13.4477 20.5523 13 20 13Z" fill="white" fill-opacity="0.74"/>
</svg>
