<svg width="360" height="52" viewBox="0 0 360 52" fill="none" xmlns="http://www.w3.org/2000/svg">
    <path fill-rule="evenodd" clip-rule="evenodd"
          d="M7 0C3.13401 0 0 3.13401 0 7V45C0 48.866 3.13401 52 7.00001 52H353C356.866 52 360 48.866 360 45V7C360 3.13401 356.866 0 353 0H213.991L213.976 12.3574L213.923 12.3572C213.884 12.3572 213.845 12.3575 213.806 12.358C213.883 12.8943 213.923 13.4425 213.923 14C213.923 18.81 210.95 22.9303 206.73 24.6468L190.241 34.1038L190.226 34.0648C188.177 35.8899 185.469 37 182.5 37C179.531 37 176.824 35.8899 174.774 34.0648C174.763 34.0948 174.752 34.1249 174.74 34.155L158.223 24.7081C158.236 24.6865 158.248 24.6648 158.261 24.643C154.046 22.9243 151.077 18.8065 151.077 14C151.077 13.4425 151.117 12.8943 151.194 12.358C151.155 12.3575 151.116 12.3572 151.077 12.3572L151 12.3575L151.015 0H7Z"
          fill="white"/>
</svg>
